<svg viewBox="0 0 1024 1024" xmlns="http://www.w3.org/2000/svg">
  <path d="M880 112H144c-17.7 0-32 14.3-32 32v736c0 17.7 14.3 32 32 32h736c17.7 0 32-14.3 32-32V144c0-17.7-14.3-32-32-32zM368 744c0 4.4-3.6 8-8 8h-56c-4.4 0-8-3.6-8-8V280c0-4.4 3.6-8 8-8h56c4.4 0 8 3.6 8 8v464zm152-280c0 4.4-3.6 8-8 8h-56c-4.4 0-8-3.6-8-8V280c0-4.4 3.6-8 8-8h56c4.4 0 8 3.6 8 8v184zm152 72c0 4.4-3.6 8-8 8h-56c-4.4 0-8-3.6-8-8V280c0-4.4 3.6-8 8-8h56c4.4 0 8 3.6 8 8v256z" fill="currentColor"/>
  <path d="M256 120h512v64H256v-64zm0 120h512v64H256v-64zm0 120h512v64H256v-64zm0 120h512v64H256v-64zm0 120h512v64H256v-64zm0 120h512v64H256v-64z" fill="currentColor"/>
</svg> 